/* XPM */
static char *pms_linux[] = {
/* columns rows colors chars-per-pixel */
"32 32 218 2",
"   c #094811",
".  c #0A4C12",
"X  c #104A17",
"o  c #1B571E",
"O  c #1E5E2C",
"+  c #265E26",
"@  c #1A7121",
"#  c #1F7626",
"$  c #216C29",
"%  c #256C32",
"&  c #0A830A",
"*  c #0B830A",
"=  c #0A8408",
"-  c #0B8509",
";  c #0B840A",
":  c #0C850B",
">  c #0D850B",
",  c #0E860C",
"<  c #0E860D",
"1  c #0E870D",
"2  c #0B8908",
"3  c #0D890B",
"4  c #0E890B",
"5  c #0E8B0B",
"6  c #0C8F08",
"7  c #0E8C0B",
"8  c #0E8D0B",
"9  c #0F8F0B",
"0  c #0E880C",
"q  c #0B9F07",
"w  c #0F910B",
"e  c #0C9708",
"r  c #0F940B",
"t  c #0F950B",
"y  c #0E970A",
"u  c #0F970B",
"i  c #0F9A0B",
"p  c #0F9C0B",
"a  c #0F9E0B",
"s  c #0F9F0B",
"d  c #118511",
"f  c #118610",
"g  c #128613",
"h  c #108E12",
"j  c #16861B",
"k  c #128C18",
"l  c #1B8E1A",
"z  c #1E8E1C",
"x  c #129113",
"c  c #139912",
"v  c #1D911B",
"b  c #0FA00B",
"n  c #0FA20B",
"m  c #0FA30B",
"M  c #0FA60B",
"N  c #0FA80A",
"B  c #0FAC0A",
"V  c #0EAD0A",
"C  c #0EAF0B",
"Z  c #0FAF0B",
"A  c #0FA80C",
"S  c #10A70C",
"D  c #10AF0B",
"F  c #0DB007",
"G  c #0EB00B",
"H  c #0FB70B",
"J  c #11BB0B",
"K  c #11B80C",
"L  c #12BA0C",
"P  c #13A812",
"I  c #11AC12",
"U  c #12B812",
"Y  c #16BF13",
"T  c #17B018",
"R  c #1F8C20",
"E  c #239023",
"W  c #249A21",
"Q  c #2A952A",
"!  c #2B922E",
"~  c #339833",
"^  c #37983B",
"/  c #369F3B",
"(  c #28BD23",
")  c #3FA336",
"_  c #36A832",
"`  c #31A935",
"'  c #38A338",
"]  c #31BB37",
"[  c #4A9F3D",
"{  c #46BF3F",
"}  c #14C00E",
"|  c #1DC214",
" . c #1EC714",
".. c #1DCA17",
"X. c #21C517",
"o. c #21CE17",
"O. c #29CF20",
"+. c #38DB29",
"@. c #3BDC28",
"#. c #3DD33E",
"$. c #42D72B",
"%. c #40D92B",
"&. c #45CF36",
"*. c #45C23F",
"=. c #44C53F",
"-. c #44C93F",
";. c #44D23F",
":. c #3C8D49",
">. c #3C9C44",
",. c #429F43",
"<. c #469E4C",
"1. c #4BAF41",
"2. c #4BAE42",
"3. c #4CAD43",
"4. c #4DAB46",
"5. c #4DAA47",
"6. c #4DAB47",
"7. c #4CAC44",
"8. c #4FA94B",
"9. c #4EAA4A",
"0. c #4EAA4B",
"q. c #4FA84E",
"w. c #4DAD4F",
"e. c #50A74F",
"r. c #50AB4B",
"t. c #50A94E",
"y. c #4BB140",
"u. c #4AB141",
"i. c #49B340",
"p. c #48B342",
"a. c #49B440",
"s. c #49B640",
"d. c #49B740",
"f. c #4BB546",
"g. c #4FB544",
"h. c #47B940",
"j. c #47B841",
"k. c #47BC40",
"l. c #45BE41",
"z. c #48BB41",
"x. c #4CBB47",
"c. c #4BB048",
"v. c #51A751",
"b. c #51A752",
"n. c #52A753",
"m. c #50A355",
"M. c #51A356",
"N. c #50A454",
"B. c #53A555",
"V. c #53A654",
"C. c #53A655",
"Z. c #51A851",
"A. c #50AB55",
"S. c #54A558",
"D. c #55A558",
"F. c #54A459",
"G. c #55A459",
"H. c #56A45B",
"J. c #55A35C",
"K. c #57A35E",
"L. c #56A25F",
"P. c #57A25F",
"I. c #55A45C",
"U. c #54A75F",
"Y. c #52A95B",
"T. c #51AC59",
"R. c #59AB5B",
"E. c #5EAC5F",
"W. c #5FAE5E",
"Q. c #5FAE5F",
"!. c #56B653",
"~. c #59B35D",
"^. c #56A260",
"/. c #57A260",
"(. c #58A161",
"). c #58A261",
"_. c #58A262",
"`. c #59A362",
"'. c #59A263",
"]. c #5BA363",
"[. c #5BA760",
"{. c #5AA562",
"}. c #5CA761",
"|. c #5CA663",
" X c #5BA464",
".X c #5CA464",
"XX c #5EA764",
"oX c #5FA765",
"OX c #5CA861",
"+X c #5DAA60",
"@X c #5AAD63",
"#X c #5FAA64",
"$X c #5FAF68",
"%X c #60AD61",
"&X c #61AF60",
"*X c #60AD64",
"=X c #62B061",
"-X c #64B263",
";X c #62B065",
":X c #68B566",
">X c #66BB65",
",X c #6FBF6B",
"<X c #44C340",
"1X c #4EC445",
"2X c #43C940",
"3X c #46C842",
"4X c #41CF40",
"5X c #49CA42",
"6X c #42D740",
"7X c #47D943",
"8X c #56D942",
"9X c #5ED25D",
"0X c #60D84A",
"qX c #5AEB40",
"wX c #67F146",
"eX c #7EFC58",
"rX c #60C461",
"tX c None",
/* pixels */
"tXtXtXtXtXtXtXtXtXtXtXtXtXtXtXtXtXtXtXtXtXtXtXtXtXtXtXtXtXtXtXtX",
"tXtXtXtXtXtXtXtXtXtXtXtXtXtXtXtXtXtXtXtXtXtXtXtXtXtXtXtXtXtXtXtX",
"tXtXtXtXtXtXtXtXtXtXtXtXtXtXtXtXtXtXtXtXtXtXtXtXtXtXtXtXtXtXtXtX",
"tXtXtXtXtXtXtXtXtXtXtXtXtXtXtXtXtXtXtXtXtXtXtXtXtXtXtXtXtXtXtXtX",
"tXtXtXtXtXtXtXtXtXtXtXtXtXtXtXtXtXtXtXtXtXtXtXtXtXtXtXtXtXtXtXtX",
"tXtXtXtXtXtXtX] #.@ tXtXtXtXtXtXtXtXtXtXtXtXtXtXtXtXtXtXtXtXtXtX",
"tXtXtXtXtXtXtX6X;.7X` tXtXtXtXtXtXtXtXtXtXtXtXtXtXtXtXtXtXtXtXtX",
"tXtXtXtXtXtXtX4X-.<X5X5X# tXtXtXtXtXtXtXtXtXtXtXtXtXtXtXtXtXtXtX",
"tXtXtXtXtXtXtX2X*.{ z.d.1X' tXtXtXtXtXtXtXtXtXtXtXtXtXtXtXtXtXtX",
"tXtXtXtXtXtXtX<Xl.{ { p.p.g.f.$ tXtXtXtXtXtXtXtXtXtXtXtXtXtXtXtX",
"tXtXtXtXtXtXtXl.z.y.3.[ 3.3.r.!.>.tXtXtXtXtXtXtXtXtXtXtXtXtXtXtX",
"tXtXtXtXtXtXtXj.y.y.3.c.8.t.Z.V.R.Y.+ tXtXtXtXtXtXtXtXtXtXtXtXtX",
"tXtXtXtXtXtXtXp.4.4.8.q.v.B.F.I.`.'.$X:.tXtXtXtXtXtXtXtXtXtXtXtX",
"tXtXtXtXtXtXtXc.r.v.v.M.S.I././.'.|.OX;X~.% tXtXtXtXtXtXtXtXtXtX",
"tXtXtXtXtXtXtXw.v.B.H.H.L./.`.|.K.E.+X~.;X:X<.tXtXtXtXtXtXtXtXtX",
"tXtXtXtXtXtXtXA.H.H.L.(.`.|.#X*X%X&X&X&X:X:XrXrXtXtXtXtXtXtXtXtX",
"tXtXtXtXtXtXtXY.P.`.]..XOXN.,.~ E z z v W _ x.9XtXtXtXtXtXtXtXtX",
"tXtXtXtXtXtXtXI..X.XM.^ z f ; = > 2 6 e q F I . tXtXtXtXtXtXtXtX",
"tXtXtXtXtXtXtX@XM.! d & 1 1 1 5 w i n Z Y k tXtXtXtXtXtXtXtXtXtX",
"tXtXtXtXtXtXtX/ g * 1 1 1 5 t i S D } I   tXtXtXtXtXtXtXtXtXtXtX",
"tXtXtXtXtXtXtXh > 1 5 5 t s M B L ..j tXtXtXtXtXtXtXtXtXtXtXtXtX",
"tXtXtXtXtXtXtXx 5 9 t s S D J o.( X tXtXtXtXtXtXtXtXtXtXtXtXtXtX",
"tXtXtXtXtXtXtXc t s A Z J  .+.Q tXtXtXtXtXtXtXtXtXtXtXtXtXtXtXtX",
"tXtXtXtXtXtXtXP B Z L | +.&.o tXtXtXtXtXtXtXtXtXtXtXtXtXtXtXtXtX",
"tXtXtXtXtXtXtXU L X.%.qX[ tXtXtXtXtXtXtXtXtXtXtXtXtXtXtXtXtXtXtX",
"tXtXtXtXtXtXtXO.$.wX0X+ tXtXtXtXtXtXtXtXtXtXtXtXtXtXtXtXtXtXtXtX",
"tXtXtXtXtXtXtX8XeX[ tXtXtXtXtXtXtXtXtXtXtXtXtXtXtXtXtXtXtXtXtXtX",
"tXtXtXtXtXtXtXtXtXtXtXtXtXtXtXtXtXtXtXtXtXtXtXtXtXtXtXtXtXtXtXtX",
"tXtXtXtXtXtXtXtXtXtXtXtXtXtXtXtXtXtXtXtXtXtXtXtXtXtXtXtXtXtXtXtX",
"tXtXtXtXtXtXtXtXtXtXtXtXtXtXtXtXtXtXtXtXtXtXtXtXtXtXtXtXtXtXtXtX",
"tXtXtXtXtXtXtXtXtXtXtXtXtXtXtXtXtXtXtXtXtXtXtXtXtXtXtXtXtXtXtXtX",
"tXtXtXtXtXtXtXtXtXtXtXtXtXtXtXtXtXtXtXtXtXtXtXtXtXtXtXtXtXtXtXtX"
};
